<svg width="119" height="42" viewBox="0 0 119 42" fill="none" xmlns="http://www.w3.org/2000/svg">
<path d="M6.16956 26.4289H0C0.233821 31.9004 4.61471 34.0293 13.0085 34.1236C13.2103 34.1271 13.4145 34.1283 13.621 34.1283C21.8154 34.1283 26.0194 32.2106 26.0194 27.1771C26.0194 25.4683 25.5708 24.1508 24.6474 23.251C23.7228 22.3823 22.4718 21.7522 20.892 21.393C19.2825 21.0338 17.0464 20.7343 14.1563 20.5242L13.0085 20.4395L12.9338 20.4347C11.1748 20.3154 9.83474 20.165 8.96948 19.986C7.1808 19.6555 6.58498 19.0863 6.58498 18.0087C6.58498 16.5993 7.95705 15.9406 12.1587 15.9406C12.4519 15.9406 12.7344 15.9442 13.0073 15.9502C17.0737 16.048 18.9834 16.8869 18.9834 18.9359H25.1233C24.8919 14.2496 20.7804 11.74 13.0073 11.6004C12.7771 11.5956 12.5445 11.5933 12.3071 11.5933C4.85565 11.5933 0.445091 13.7222 0.445091 17.9776C0.445091 22.5326 3.7542 24.4205 12.0103 24.899L13.0085 24.9539L13.113 24.9587C15.1094 25.1079 16.5408 25.2284 17.4642 25.3776C19.2825 25.6771 19.8796 26.2177 19.8796 27.3848C19.8796 29.0626 18.3888 29.7822 13.4406 29.7822C13.2934 29.7822 13.1498 29.781 13.0085 29.7786C8.11134 29.7189 6.16837 28.6103 6.16837 26.4265L6.16956 26.4289Z" fill="white"/>
<path d="M11.0656 8.05981V10.6518C11.4679 10.6362 11.881 10.6303 12.3094 10.6303C12.5456 10.6303 12.7795 10.6315 13.0097 10.6374C13.691 10.6494 14.3379 10.6792 14.9539 10.7257V8.06101C14.383 8.39753 13.7195 8.59205 13.0097 8.59205C12.2999 8.59205 11.6365 8.39753 11.0656 8.06101V8.05981Z" fill="white"/>
<path d="M12.1587 16.906C11.7694 16.906 11.4038 16.9131 11.0656 16.9239V19.3106C11.6317 19.369 12.2786 19.4215 13.0014 19.4705H13.0097L14.2275 19.5624C14.4744 19.5803 14.7177 19.597 14.9539 19.6184V17.0468C14.4079 16.98 13.7658 16.9358 13.0097 16.9167C12.7415 16.9084 12.459 16.9048 12.1599 16.9048L12.1587 16.906Z" fill="white"/>
<path d="M11.0656 7.20898C11.6365 7.5467 12.3 7.74002 13.0098 7.74002C13.7195 7.74002 14.383 7.5467 14.9539 7.20898C16.0934 6.53832 16.8601 5.29486 16.8601 3.86882C16.8601 1.73273 15.1367 0 13.0098 0C10.8828 0 9.15942 1.73273 9.15942 3.86882C9.15942 5.29486 9.92498 6.53832 11.0656 7.20898ZM13.0098 1.93083H13.0109C14.0732 1.93083 14.9385 2.80078 14.9385 3.86882C14.9385 4.93686 14.0732 5.808 13.0109 5.808H13.0098C11.9463 5.80681 11.081 4.93805 11.081 3.86882C11.081 2.79958 11.9463 1.93202 13.0098 1.93083Z" fill="white"/>
<path d="M13.4417 28.8193C14.0032 28.8193 14.504 28.8098 14.9539 28.7907V26.0746C14.3996 26.0269 13.7693 25.9768 13.0524 25.9231H13.0097L11.9593 25.8646C11.6543 25.8467 11.3575 25.8264 11.0656 25.8049V28.7191C11.6293 28.7728 12.2738 28.8074 13.0097 28.8157C13.1498 28.8169 13.2946 28.8193 13.4417 28.8193Z" fill="white"/>
<path d="M13.0097 35.0913C12.3332 35.083 11.6863 35.0627 11.0656 35.0281V37.1475C11.6673 37.3921 12.3142 37.6319 13.0097 37.8682H13.0109C13.7041 37.6331 14.3533 37.3945 14.9527 37.1498V35.077C14.523 35.0901 14.0779 35.0949 13.621 35.0949C13.4144 35.0949 13.2091 35.0937 13.0085 35.0913H13.0097Z" fill="white"/>
<path d="M13.0108 38.7396H13.0097C9.71717 37.65 7.01695 36.3338 5.44667 34.5939C4.51732 34.3242 3.69123 33.9913 2.95534 33.5963C1.82184 32.9877 0.910298 32.2203 0.220703 31.2991C0.8557 32.9089 2.1435 35.3863 4.53037 37.3935C7.77657 40.125 11.4406 41.0702 13.0097 41.3959H13.0108C14.5764 41.0702 18.2427 40.1262 21.4913 37.3935C23.3144 35.86 24.4978 34.0497 25.2372 32.5628C23.9447 33.7621 22.1845 34.4841 20.2676 34.9137C18.6677 36.4973 16.098 37.7169 13.0108 38.7396Z" fill="white"/>
<path d="M12.1611 15.9406C12.4542 15.9406 12.7367 15.9442 13.0097 15.9502V11.6004C12.7795 11.5956 12.5468 11.5933 12.3094 11.5933C4.85802 11.5933 0.447465 13.7222 0.447465 17.9776C0.447465 22.5326 3.75657 24.4205 12.0127 24.899L13.0109 24.9539V20.4395L12.9361 20.4347C11.1771 20.3154 9.83711 20.165 8.97185 19.986C7.18318 19.6555 6.58735 19.0863 6.58735 18.0087C6.58735 16.5993 7.95942 15.9406 12.1611 15.9406ZM6.16956 26.4289H0C0.233821 31.9004 4.61471 34.0293 13.0085 34.1236V29.7798C8.11134 29.7201 6.16837 28.6115 6.16837 26.4277L6.16956 26.4289Z" fill="#F2F2F2"/>
<path d="M13.0097 8.58963V10.6362C12.7795 10.6314 12.5468 10.6291 12.3094 10.6291C11.881 10.6291 11.4679 10.6362 11.0656 10.6505V8.05859C11.6365 8.39512 12.2999 8.58963 13.0097 8.58963Z" fill="#F2F2F2"/>
<path d="M13.0097 16.9167V19.4705H13.0014C12.2786 19.4228 11.6317 19.3691 11.0656 19.3106V16.9239C11.405 16.912 11.7706 16.906 12.1587 16.906C12.4578 16.906 12.7415 16.9096 13.0085 16.9179L13.0097 16.9167Z" fill="#F2F2F2"/>
<path d="M13.0097 25.9219V28.8157C12.2738 28.8074 11.6293 28.7728 11.0656 28.7191V25.8049C11.3563 25.8264 11.6543 25.8467 11.9593 25.8646L13.0097 25.9207V25.9219Z" fill="#F2F2F2"/>
<path d="M13.0097 35.0915V37.8673C12.3154 37.631 11.6685 37.3911 11.0656 37.1465V35.0271C11.6863 35.0617 12.3332 35.082 13.0097 35.0903V35.0915Z" fill="#F2F2F2"/>
<path d="M13.0098 1.93083V0C10.884 0 9.15942 1.73273 9.15942 3.86882C9.15942 5.29486 9.92498 6.53832 11.0656 7.20898C11.6365 7.5467 12.3 7.74002 13.0098 7.74002V5.80919C11.9463 5.808 11.081 4.93924 11.081 3.87001C11.081 2.80077 11.9463 1.93322 13.0098 1.93202V1.93083Z" fill="#F2F2F2"/>
<path d="M13.0097 38.7396V41.3959C11.4418 41.0702 7.77657 40.125 4.53037 37.3935C2.1435 35.3863 0.8557 32.9089 0.220703 31.2991C0.910298 32.2203 1.82184 32.9877 2.95534 33.5963C3.69123 33.9924 4.51732 34.3254 5.44667 34.5939C7.01695 36.3338 9.71717 37.65 13.0097 38.7396Z" fill="#F2F2F2"/>
<path d="M13.0098 8.58963C13.7195 8.58963 14.383 8.39512 14.9539 8.05859V10.7233C14.3379 10.6768 13.6911 10.647 13.0098 10.635V8.58844V8.58963Z" fill="white"/>
<path d="M16.8589 3.86884C16.8589 5.29489 16.0933 6.53835 14.9527 7.20901C14.3818 7.54673 13.7183 7.74005 13.0085 7.74005V5.80922H13.0097C14.072 5.80922 14.9373 4.93927 14.9373 3.87004C14.9373 2.8008 14.072 1.93205 13.0097 1.93205H13.0085V0.0012207C15.1343 0.0012207 16.8589 1.73395 16.8589 3.87004V3.86884Z" fill="white"/>
<path d="M14.2275 19.5624L13.0098 19.4705V16.9167C13.7658 16.9346 14.4079 16.98 14.9539 17.0468V19.6185C14.7177 19.597 14.4744 19.5803 14.2275 19.5624Z" fill="white"/>
<path d="M13.4418 28.8193C13.2946 28.8193 13.151 28.8181 13.0098 28.8157V25.9219H13.0525C13.7694 25.9768 14.3996 26.0269 14.9539 26.0746V28.7907C14.5041 28.8086 14.002 28.8193 13.4418 28.8193Z" fill="white"/>
<path d="M13.0098 15.9503V11.6006C20.7828 11.7402 24.8943 14.251 25.1257 18.9361H18.9859C18.9859 16.8871 17.0761 16.0482 13.0098 15.9503Z" fill="white"/>
<path d="M13.6221 35.095C14.0791 35.095 14.5242 35.0903 14.9538 35.0771V37.15C14.3533 37.3946 13.7052 37.6345 13.0121 37.8684H13.0109V35.0927C13.2115 35.0939 13.4168 35.0962 13.6233 35.0962L13.6221 35.095Z" fill="white"/>
<path d="M26.0207 27.1771C26.0207 32.2106 21.8166 34.1283 13.6222 34.1283C13.4157 34.1283 13.2115 34.1271 13.0098 34.1235V29.7798C13.1498 29.781 13.2946 29.7833 13.4418 29.7833C18.39 29.7833 19.8808 29.065 19.8808 27.3859C19.8808 26.2176 19.2838 25.6771 17.4654 25.3787C16.542 25.2296 15.1106 25.109 13.1142 24.9599L13.0098 24.9551V20.4407L14.1575 20.5254C17.0476 20.7354 19.2826 21.035 20.8932 21.3942C22.473 21.7534 23.724 22.3834 24.6486 23.2522C25.572 24.152 26.0207 25.4694 26.0207 27.1783V27.1771Z" fill="white"/>
<path d="M25.2373 32.564C24.4979 34.0509 23.3145 35.8612 21.4914 37.3946C18.2417 40.1274 14.5753 41.0713 13.011 41.3971H13.0098V38.7407H13.011C16.0981 37.718 18.6678 36.4984 20.2677 34.9148C22.1858 34.4852 23.946 33.7633 25.2373 32.564Z" fill="white"/>
<path d="M34.9712 26.306H39.3093C39.3093 27.886 40.755 28.6653 44.4225 28.6653C47.9014 28.6653 48.9494 28.1593 48.9494 26.9803C48.9494 26.1581 48.5304 25.7798 47.2521 25.5686C46.6029 25.4635 45.5964 25.3788 44.1923 25.2738L43.4172 25.232C37.612 24.8943 35.2869 23.5673 35.2869 20.3644C35.2869 17.3727 38.3883 15.8762 43.6273 15.8762C49.4111 15.8762 52.471 17.6459 52.6383 21.0386H48.3215C48.3215 19.5004 46.7916 18.9312 43.5228 18.9312C40.5674 18.9312 39.6037 19.3942 39.6037 20.3847C39.6037 21.1436 40.0226 21.5434 41.2796 21.7749C41.8873 21.9014 42.8309 22.0064 44.0664 22.0911L44.9258 22.1544C46.9589 22.3012 48.5304 22.5124 49.6615 22.7654C50.7725 23.0184 51.652 23.4611 52.3012 24.0721C52.9505 24.7046 53.265 25.6318 53.265 26.8323C53.265 30.3718 50.3108 31.7202 44.5471 31.7202C38.3657 31.7202 35.1385 30.2453 34.97 26.3048L34.9712 26.306Z" fill="white"/>
<path d="M53.411 16.2341H57.6234L61.7728 28.201L66.8017 16.2341H72.2924L77.3213 28.2224L81.4494 16.2341H85.6617L80.3812 31.2989H74.43L69.5471 19.5206L64.6641 31.2989H58.7129L53.411 16.2341Z" fill="white"/>
<path d="M87.3151 16.2341H91.4859V31.2989H87.3151V16.2341Z" fill="white"/>
<path d="M94.5861 16.2341H101.041L106.364 26.6007L111.686 16.2341H118.119V31.2989H113.948V20.1745L108.312 31.2989H104.435L98.7558 20.1745V31.2989H94.585V16.2341H94.5861Z" fill="white"/>
<path d="M30.4431 14.5837V32.5125" stroke="white" stroke-width="2" stroke-miterlimit="10"/>
</svg>
