<svg width="33" height="57" viewBox="0 0 33 57" fill="none" xmlns="http://www.w3.org/2000/svg">
<path d="M0.000970895 54.2757H1.97297C1.97297 54.7118 2.44217 54.979 3.67006 54.979C4.89794 54.979 5.19714 54.8177 5.19714 54.4942C5.19714 54.2436 5.07571 54.1387 4.63177 54.0658C4.4132 54.0338 4.05766 54.0007 3.57291 53.9774L3.29023 53.9609C1.05206 53.8152 0.0893713 53.2897 0.0893713 52.0375C0.0893713 50.8572 1.33377 50.251 3.35434 50.251C5.62554 50.251 6.85343 50.9378 6.92628 52.2308H4.95429C4.95429 51.8024 4.44526 51.6246 3.33783 51.6246C2.34406 51.6246 2.0604 51.7781 2.0604 52.0365C2.0604 52.3435 2.28674 52.4571 3.57971 52.5378L3.91097 52.5621C4.68714 52.6184 5.29331 52.699 5.73726 52.8049C6.18217 52.9098 6.52897 53.0798 6.78834 53.3305C7.03897 53.5811 7.16817 53.9444 7.16817 54.4214C7.16817 55.8193 6.01217 56.3526 3.74971 56.3526C1.36583 56.3526 0.0641143 55.7785 0 54.2757H0.000970895Z" fill="white"/>
<path d="M7.14575 50.388H9.06141L10.4758 54.7604L12.1894 50.388H14.7025L16.4161 54.7682L17.8305 50.388H19.7462L17.8227 56.1903H15.0911L13.4503 51.9151L11.8096 56.1903H9.07015L7.14672 50.388H7.14575Z" fill="white"/>
<path d="M20.3027 50.388H22.2019V56.1903H20.3027V50.388Z" fill="white"/>
<path d="M23.3093 50.388H26.2751L27.9887 54.0007L29.7101 50.388H32.6681V56.1903H30.7689V52.19L28.8776 56.1903H27.1076L25.2085 52.1822V56.1903H23.3093V50.388Z" fill="white"/>
<path d="M8.54073 29.9511H1.51147C1.77765 36.1507 6.76885 38.5638 16.3335 38.6716C16.5638 38.6755 16.795 38.6774 17.031 38.6774C26.3674 38.6774 31.1575 36.5043 31.1575 30.8001C31.1575 28.8641 30.6466 27.371 29.5945 26.351C28.5405 25.3669 27.1154 24.6529 25.3154 24.2449C23.4813 23.8379 20.9342 23.4989 17.6411 23.2609L16.3326 23.1647L16.248 23.1589C14.244 23.0229 12.7169 22.8538 11.7319 22.6498C9.69382 22.2749 9.01576 21.6298 9.01576 20.4087C9.01576 18.8117 10.5788 18.0657 15.366 18.0657C15.6992 18.0657 16.0217 18.0695 16.3335 18.0773C20.9672 18.1881 23.1423 19.1381 23.1423 21.4608H30.1375C29.8733 16.151 25.1891 13.3066 16.3335 13.1483C16.0712 13.1425 15.806 13.1405 15.536 13.1405C7.0457 13.1405 2.0205 15.5535 2.0205 20.3757C2.0205 25.5369 5.79062 27.676 15.197 28.219L16.3335 28.2812L16.452 28.287C18.7271 28.457 20.3582 28.5921 21.4092 28.7621C23.4813 29.1011 24.1613 29.7141 24.1613 31.0371C24.1613 32.9392 22.4632 33.7533 16.8251 33.7533C16.657 33.7533 16.4928 33.7513 16.3335 33.7494C10.7536 33.6814 8.54073 32.4263 8.54073 29.9511Z" fill="white"/>
<path d="M14.1187 9.13434V12.071C14.5762 12.0545 15.0483 12.0467 15.536 12.0467C15.806 12.0467 16.0712 12.0486 16.3335 12.0545C17.1097 12.0681 17.847 12.1021 18.5484 12.1545V9.13434C17.8985 9.51514 17.1417 9.73566 16.3335 9.73566C15.5253 9.73566 14.7685 9.51514 14.1187 9.13434Z" fill="white"/>
<path d="M15.365 19.1595C14.922 19.1595 14.5053 19.1673 14.1187 19.1799V21.8853C14.7637 21.9514 15.5 22.0116 16.3238 22.066H16.3335L17.7207 22.1699C18.0015 22.1903 18.2783 22.2098 18.5484 22.2341V19.3198C17.9267 19.244 17.1952 19.1935 16.3335 19.1731C16.0285 19.1634 15.706 19.1595 15.365 19.1595Z" fill="white"/>
<path d="M14.1187 8.17166C14.7685 8.5544 15.5253 8.77297 16.3335 8.77297C17.1417 8.77297 17.8985 8.5544 18.5484 8.17166C19.8472 7.412 20.7195 6.00246 20.7195 4.38697C20.7195 1.96617 18.7553 0.00194359 16.3335 0.00194359C13.9117 0.00194359 11.9475 1.96617 11.9475 4.38697C11.9475 6.00246 12.8199 7.412 14.1187 8.17166ZM16.3335 2.19057H16.3355C17.5459 2.19057 18.5319 3.17657 18.5319 4.38697C18.5319 5.59737 17.5459 6.58532 16.3355 6.58532H16.3335C15.1212 6.58337 14.1352 5.59931 14.1352 4.38697C14.1352 3.17463 15.1212 2.19251 16.3335 2.19057Z" fill="white"/>
<path d="M16.8251 32.6604C17.4643 32.6604 18.0355 32.6487 18.5484 32.6283V29.5499C17.9169 29.4955 17.1991 29.4391 16.3821 29.3779L16.3335 29.376L15.1367 29.3119C14.7899 29.2915 14.4509 29.2682 14.1187 29.2439V32.5467C14.7617 32.607 15.4952 32.6468 16.3335 32.6565C16.4938 32.6585 16.658 32.6604 16.8251 32.6604Z" fill="white"/>
<path d="M16.3335 39.7683C15.5622 39.7586 14.8259 39.7363 14.1187 39.6965V42.0978C14.8045 42.3747 15.5418 42.6467 16.3335 42.9138H16.3355C17.1252 42.6477 17.8645 42.3766 18.5484 42.0998V39.7509C18.0578 39.7664 17.5507 39.7713 17.031 39.7713C16.7949 39.7713 16.5618 39.7693 16.3335 39.7674V39.7683Z" fill="white"/>
<path d="M16.3356 43.9027H16.3336C12.582 42.6681 9.50644 41.1769 7.71706 39.2049C6.65724 38.8999 5.71689 38.523 4.87855 38.0742C3.58752 37.3845 2.54906 36.515 1.76221 35.4707C2.48592 37.2951 3.95278 40.1025 6.67278 42.3776C10.371 45.4726 14.5462 46.5431 16.3336 46.9132H16.3356C18.1191 46.5441 22.2963 45.4745 25.9984 42.3776C28.0753 40.6397 29.4236 38.589 30.2659 36.9036C28.7932 38.2626 26.7881 39.0806 24.6034 39.5673C22.78 41.3615 19.8531 42.7438 16.3356 43.9027Z" fill="white"/>
<path d="M15.367 18.0657C15.7002 18.0657 16.0227 18.0695 16.3335 18.0773V13.1483C16.0712 13.1425 15.806 13.1405 15.536 13.1405C7.0457 13.1405 2.0205 15.5535 2.0205 20.3757C2.0205 25.5369 5.79062 27.676 15.197 28.219L16.3335 28.2812V23.1657L16.249 23.1598C14.245 23.0238 12.7179 22.8548 11.7328 22.6508C9.69479 22.2758 9.01673 21.6308 9.01673 20.4097C9.01673 18.8127 10.5798 18.0666 15.367 18.0666V18.0657ZM8.54073 29.9511H1.51147C1.77765 36.1507 6.76885 38.5638 16.3335 38.6716V33.7494C10.7536 33.6814 8.54073 32.4263 8.54073 29.9511Z" fill="#F2F2F2"/>
<path d="M16.3335 9.73566V12.0545C16.0712 12.0486 15.806 12.0467 15.536 12.0467C15.0473 12.0467 14.5762 12.0545 14.1187 12.071V9.13434C14.7685 9.51514 15.5253 9.73566 16.3335 9.73566Z" fill="#F2F2F2"/>
<path d="M16.3335 19.1721V22.066H16.3238C15.5 22.0116 14.7627 21.9514 14.1187 21.8853V19.1799C14.5053 19.1663 14.922 19.1595 15.365 19.1595C15.706 19.1595 16.0285 19.1634 16.3335 19.1731V19.1721Z" fill="#F2F2F2"/>
<path d="M16.3335 29.376V32.6555C15.4942 32.6458 14.7617 32.607 14.1187 32.5458V29.2429C14.4509 29.2672 14.7899 29.2905 15.1367 29.3109L16.3335 29.375V29.376Z" fill="#F2F2F2"/>
<path d="M16.3335 39.7683V42.9148C15.5418 42.6467 14.8045 42.3757 14.1187 42.0988V39.6974C14.8259 39.7373 15.5622 39.7596 16.3335 39.7693V39.7683Z" fill="#F2F2F2"/>
<path d="M16.3335 2.19057V0.00194263C13.9108 0.00194263 11.9475 1.96617 11.9475 4.38697C11.9475 6.00246 12.8199 7.412 14.1187 8.17166C14.7685 8.5544 15.5253 8.77297 16.3335 8.77297V6.58434C15.1212 6.5824 14.1352 5.59834 14.1352 4.386C14.1352 3.17366 15.1212 2.19154 16.3335 2.1896V2.19057Z" fill="#F2F2F2"/>
<path d="M16.3336 43.9027V46.9132C14.5462 46.5441 10.371 45.4726 6.67278 42.3776C3.95278 40.1025 2.48592 37.2951 1.76221 35.4707C2.54809 36.515 3.58655 37.3845 4.87855 38.0742C5.71786 38.523 6.65821 38.8999 7.71706 39.2049C9.50644 41.1769 12.582 42.6681 16.3336 43.9027Z" fill="#F2F2F2"/>
<path d="M16.3335 9.73566C17.1417 9.73566 17.8985 9.51514 18.5484 9.13434V12.1545C17.847 12.1021 17.1097 12.0681 16.3335 12.0545V9.73566Z" fill="white"/>
<path d="M20.7195 4.386C20.7195 6.00149 19.8472 7.41103 18.5484 8.17069C17.8985 8.55343 17.1417 8.772 16.3335 8.772V6.58337H16.3354C17.5458 6.58337 18.5318 5.59737 18.5318 4.38503C18.5318 3.17269 17.5458 2.18863 16.3354 2.18863H16.3335V0C18.7553 0 20.7195 1.96423 20.7195 4.38503V4.386Z" fill="white"/>
<path d="M17.7207 22.1699L16.3335 22.066V19.1721C17.1952 19.1925 17.9266 19.244 18.5484 19.3188V22.2331C18.2783 22.2088 18.0014 22.1894 17.7207 22.169V22.1699Z" fill="white"/>
<path d="M16.825 32.6604C16.657 32.6604 16.4928 32.6585 16.3335 32.6565V29.377L16.3821 29.3789C17.1981 29.4391 17.9169 29.4955 18.5484 29.5509V32.6293C18.0354 32.6497 17.4642 32.6614 16.825 32.6614V32.6604Z" fill="white"/>
<path d="M16.3335 18.0773V13.1483C25.189 13.3066 29.8733 16.151 30.1375 21.4608H23.1422C23.1422 19.1381 20.9672 18.1881 16.3335 18.0773Z" fill="white"/>
<path d="M17.031 39.7722C17.5517 39.7722 18.0588 39.7664 18.5484 39.7518V42.1007C17.8645 42.3776 17.1252 42.6496 16.3354 42.9148H16.3335V39.7683C16.5618 39.7703 16.7949 39.7722 17.031 39.7722Z" fill="white"/>
<path d="M31.1575 30.7991C31.1575 36.5034 26.3674 38.6765 17.031 38.6765C16.7949 38.6765 16.5637 38.6745 16.3335 38.6706V33.7484C16.4938 33.7503 16.658 33.7523 16.825 33.7523C22.4632 33.7523 24.1613 32.9382 24.1613 31.0362C24.1613 29.7131 23.4803 29.1001 21.4092 28.7611C20.3572 28.5911 18.7271 28.4561 16.452 28.2861L16.3335 28.2802V23.1647L17.642 23.2609C20.9352 23.4989 23.4822 23.8379 25.3163 24.2449C27.1164 24.6519 28.5414 25.3669 29.5954 26.351C30.6475 27.371 31.1585 28.8641 31.1585 30.8001L31.1575 30.7991Z" fill="white"/>
<path d="M30.2657 36.9036C29.4235 38.589 28.0752 40.6397 25.9982 42.3776C22.2961 45.4745 18.119 46.5431 16.3354 46.9132H16.3335V43.9027H16.3354C19.853 42.7438 22.7799 41.3615 24.6033 39.5673C26.788 39.0806 28.794 38.2626 30.2657 36.9036Z" fill="white"/>
</svg>
