<svg width="32" height="32" viewBox="0 0 32 32" fill="none" xmlns="http://www.w3.org/2000/svg">
<path d="M2.68994 20C5.6227 20 8.00018 22.3775 8.00018 25.3103" stroke="#FFF8EA" stroke-width="1.5" stroke-linecap="round" stroke-linejoin="round"/>
<path d="M24 25.3103V25.1877C24 22.3227 26.3227 20 29.1877 20" stroke="#FFF8EA" stroke-width="1.5" stroke-linecap="round" stroke-linejoin="round"/>
<path d="M8.00018 6.6897C8.00018 9.62246 5.6227 11.9999 2.68994 11.9999" stroke="#FFF8EA" stroke-width="1.5" stroke-linecap="round" stroke-linejoin="round"/>
<path d="M24 6.6897C24 9.59679 26.3587 11.9583 29.2564 11.9994" stroke="#FFF8EA" stroke-width="1.5" stroke-linecap="round" stroke-linejoin="round"/>
<path d="M21.3332 6.66675H10.6665C6.89526 6.66675 5.00965 6.66675 3.83808 7.83832C2.6665 9.00989 2.6665 10.8955 2.6665 14.6667V17.3334C2.6665 21.1046 2.6665 22.9902 3.83808 24.1618C5.00965 25.3334 6.89526 25.3334 10.6665 25.3334H21.3332C25.1044 25.3334 26.99 25.3334 28.1616 24.1618C29.3332 22.9902 29.3332 21.1046 29.3332 17.3334V14.6667C29.3332 10.8955 29.3332 9.00989 28.1616 7.83832C26.99 6.66675 25.1044 6.66675 21.3332 6.66675Z" stroke="#FFF8EA" stroke-width="1.5" stroke-linecap="round" stroke-linejoin="round"/>
<path d="M20 16C20 18.2092 18.2092 20 16 20C13.7908 20 12 18.2092 12 16C12 13.7908 13.7908 12 16 12C18.2092 12 20 13.7908 20 16Z" stroke="#FFF8EA" stroke-width="1.5" stroke-linecap="round" stroke-linejoin="round"/>
</svg>
