<svg width="11" height="11" viewBox="0 0 11 11" fill="none" xmlns="http://www.w3.org/2000/svg">
<path d="M5.83333 10.5V9.33333H7V10.5H5.83333ZM4.66667 9.33333V6.41667H5.83333V9.33333H4.66667ZM9.33333 7.58333V5.25H10.5V7.58333H9.33333ZM8.16667 5.25V4.08333H9.33333V5.25H8.16667ZM1.16667 6.41667V5.25H2.33333V6.41667H1.16667ZM0 5.25V4.08333H1.16667V5.25H0ZM5.25 1.16667V0H6.41667V1.16667H5.25ZM0.875 2.625H2.625V0.875H0.875V2.625ZM0 3.5V0H3.5V3.5H0ZM0.875 9.625H2.625V7.875H0.875V9.625ZM0 10.5V7H3.5V10.5H0ZM7.875 2.625H9.625V0.875H7.875V2.625ZM7 3.5V0H10.5V3.5H7ZM8.16667 10.5V8.75H7V7.58333H9.33333V9.33333H10.5V10.5H8.16667ZM5.83333 6.41667V5.25H8.16667V6.41667H5.83333ZM3.5 6.41667V5.25H2.33333V4.08333H5.83333V5.25H4.66667V6.41667H3.5ZM4.08333 3.5V1.16667H5.25V2.33333H6.41667V3.5H4.08333ZM1.3125 2.1875V1.3125H2.1875V2.1875H1.3125ZM1.3125 9.1875V8.3125H2.1875V9.1875H1.3125ZM8.3125 2.1875V1.3125H9.1875V2.1875H8.3125Z" fill="white"/>
</svg>
