<svg xmlns="http://www.w3.org/2000/svg" width="33" height="57" viewBox="0 0 33 57" fill="none">
  <path d="M0.000970895 54.2757H1.97297C1.97297 54.7118 2.44217 54.979 3.67006 54.979C4.89794 54.979 5.19714 54.8177 5.19714 54.4942C5.19714 54.2436 5.07571 54.1387 4.63177 54.0658C4.4132 54.0338 4.05766 54.0007 3.57291 53.9774L3.29023 53.9609C1.05206 53.8152 0.0893713 53.2897 0.0893713 52.0375C0.0893713 50.8572 1.33377 50.251 3.35434 50.251C5.62554 50.251 6.85343 50.9378 6.92628 52.2308H4.95429C4.95429 51.8024 4.44526 51.6246 3.33783 51.6246C2.34406 51.6246 2.0604 51.7781 2.0604 52.0365C2.0604 52.3435 2.28674 52.4571 3.57971 52.5378L3.91097 52.5621C4.68714 52.6184 5.29331 52.699 5.73726 52.8049C6.18217 52.9098 6.52897 53.0798 6.78834 53.3305C7.03897 53.5811 7.16817 53.9444 7.16817 54.4214C7.16817 55.8193 6.01217 56.3526 3.74971 56.3526C1.36583 56.3526 0.0641143 55.7785 0 54.2757H0.000970895Z" fill="#082A50"/>
  <path d="M7.14587 50.388H9.06153L10.4759 54.7604L12.1895 50.388H14.7026L16.4162 54.7682L17.8306 50.388H19.7463L17.8228 56.1903H15.0912L13.4504 51.9151L11.8097 56.1903H9.07027L7.14684 50.388H7.14587Z" fill="#082A50"/>
  <path d="M20.3029 50.388H22.202V56.1903H20.3029V50.388Z" fill="#082A50"/>
  <path d="M23.3094 50.388H26.2752L27.9888 54.0007L29.7102 50.388H32.6682V56.1903H30.769V52.19L28.8777 56.1903H27.1077L25.2086 52.1822V56.1903H23.3094V50.388Z" fill="#082A50"/>
  <path d="M8.54085 29.9511H1.5116C1.77777 36.1507 6.76897 38.5638 16.3337 38.6716C16.5639 38.6755 16.7951 38.6774 17.0311 38.6774C26.3675 38.6774 31.1577 36.5043 31.1577 30.8001C31.1577 28.8641 30.6467 27.371 29.5946 26.351C28.5406 25.3669 27.1155 24.6529 25.3155 24.2449C23.4814 23.8379 20.9343 23.4989 17.6412 23.2609L16.3327 23.1647L16.2482 23.1589C14.2441 23.0229 12.717 22.8538 11.732 22.6498C9.69394 22.2749 9.01588 21.6298 9.01588 20.4087C9.01588 18.8117 10.5789 18.0657 15.3661 18.0657C15.6993 18.0657 16.0218 18.0695 16.3337 18.0773C20.9674 18.1881 23.1424 19.1381 23.1424 21.4608H30.1377C29.8734 16.151 25.1892 13.3066 16.3337 13.1483C16.0714 13.1425 15.8062 13.1405 15.5361 13.1405C7.04583 13.1405 2.02062 15.5535 2.02062 20.3757C2.02062 25.5369 5.79074 27.676 15.1971 28.219L16.3337 28.2812L16.4522 28.287C18.7273 28.457 20.3583 28.5921 21.4094 28.7621C23.4814 29.1011 24.1614 29.7141 24.1614 31.0371C24.1614 32.9392 22.4634 33.7533 16.8252 33.7533C16.6571 33.7533 16.493 33.7513 16.3337 33.7494C10.7538 33.6814 8.54085 32.4263 8.54085 29.9511Z" fill="#082A50"/>
  <path d="M14.1188 9.13434V12.071C14.5763 12.0545 15.0484 12.0467 15.5361 12.0467C15.8061 12.0467 16.0713 12.0486 16.3336 12.0545C17.1098 12.0681 17.8471 12.1021 18.5485 12.1545V9.13434C17.8986 9.51514 17.1419 9.73566 16.3336 9.73566C15.5254 9.73566 14.7687 9.51514 14.1188 9.13434Z" fill="#082A50"/>
  <path d="M15.3651 19.1595C14.9221 19.1595 14.5054 19.1673 14.1188 19.1799V21.8853C14.7638 21.9514 15.5001 22.0116 16.3239 22.066H16.3336L17.7208 22.1699C18.0016 22.1903 18.2784 22.2098 18.5485 22.2341V19.3198C17.9268 19.244 17.1953 19.1935 16.3336 19.1731C16.0286 19.1634 15.7061 19.1595 15.3651 19.1595Z" fill="#082A50"/>
  <path d="M14.1188 8.17166C14.7687 8.5544 15.5254 8.77297 16.3336 8.77297C17.1419 8.77297 17.8986 8.5544 18.5485 8.17166C19.8473 7.412 20.7196 6.00246 20.7196 4.38697C20.7196 1.96617 18.7554 0.00194359 16.3336 0.00194359C13.9119 0.00194359 11.9476 1.96617 11.9476 4.38697C11.9476 6.00246 12.82 7.412 14.1188 8.17166ZM16.3336 2.19057H16.3356C17.546 2.19057 18.532 3.17657 18.532 4.38697C18.532 5.59737 17.546 6.58532 16.3356 6.58532H16.3336C15.1213 6.58337 14.1353 5.59931 14.1353 4.38697C14.1353 3.17463 15.1213 2.19251 16.3336 2.19057Z" fill="#082A50"/>
  <path d="M16.8252 32.6604C17.4644 32.6604 18.0356 32.6487 18.5485 32.6283V29.5499C17.9171 29.4955 17.1992 29.4391 16.3822 29.3779L16.3336 29.376L15.1368 29.3119C14.79 29.2915 14.451 29.2682 14.1188 29.2439V32.5467C14.7619 32.607 15.4953 32.6468 16.3336 32.6565C16.4939 32.6585 16.6581 32.6604 16.8252 32.6604Z" fill="#082A50"/>
  <path d="M16.3336 39.7683C15.5623 39.7586 14.826 39.7363 14.1188 39.6965V42.0978C14.8046 42.3747 15.5419 42.6467 16.3336 42.9138H16.3356C17.1253 42.6477 17.8646 42.3766 18.5485 42.0998V39.7509C18.0579 39.7664 17.5508 39.7713 17.0311 39.7713C16.7951 39.7713 16.5619 39.7693 16.3336 39.7674V39.7683Z" fill="#082A50"/>
  <path d="M16.3356 43.9027H16.3336C12.582 42.6681 9.50644 41.1769 7.71706 39.2049C6.65724 38.8999 5.71689 38.523 4.87855 38.0742C3.58752 37.3845 2.54906 36.515 1.76221 35.4707C2.48592 37.2951 3.95278 40.1025 6.67278 42.3776C10.371 45.4726 14.5462 46.5431 16.3336 46.9132H16.3356C18.1191 46.5441 22.2963 45.4745 25.9984 42.3776C28.0753 40.6397 29.4236 38.589 30.2659 36.9036C28.7932 38.2626 26.7881 39.0806 24.6034 39.5673C22.78 41.3615 19.8531 42.7438 16.3356 43.9027Z" fill="#082A50"/>
  <path d="M15.3671 18.0657C15.7003 18.0657 16.0228 18.0695 16.3337 18.0773V13.1483C16.0714 13.1425 15.8062 13.1405 15.5361 13.1405C7.04583 13.1405 2.02062 15.5535 2.02062 20.3757C2.02062 25.5369 5.79074 27.676 15.1971 28.219L16.3337 28.2812V23.1657L16.2491 23.1598C14.2451 23.0238 12.718 22.8548 11.733 22.6508C9.69491 22.2758 9.01686 21.6308 9.01686 20.4097C9.01686 18.8127 10.5799 18.0666 15.3671 18.0666V18.0657ZM8.54085 29.9511H1.5116C1.77777 36.1507 6.76897 38.5638 16.3337 38.6716V33.7494C10.7538 33.6814 8.54085 32.4263 8.54085 29.9511Z" fill="#0A3462"/>
  <path d="M16.3336 9.73566V12.0545C16.0713 12.0486 15.8061 12.0467 15.5361 12.0467C15.0475 12.0467 14.5763 12.0545 14.1188 12.071V9.13434C14.7687 9.51514 15.5254 9.73566 16.3336 9.73566Z" fill="#0A3462"/>
  <path d="M16.3336 19.1721V22.066H16.3239C15.5001 22.0116 14.7628 21.9514 14.1188 21.8853V19.1799C14.5054 19.1663 14.9221 19.1595 15.3651 19.1595Z" fill="#0A3462"/>
  <path d="M16.3336 29.376V32.6555C15.4943 32.6458 14.7619 32.607 14.1188 32.5458V29.2429C14.451 29.2672 14.79 29.2905 15.1368 29.3109L16.3336 29.375V29.376Z" fill="#0A3462"/>
  <path d="M16.3336 39.7683V42.9148C15.5419 42.6467 14.8046 42.3757 14.1188 42.0988V39.6974C14.826 39.7373 15.5623 39.7596 16.3336 39.7693V39.7683Z" fill="#0A3462"/>
  <path d="M16.3336 2.19057V0.00194359C13.9109 0.00194359 11.9476 1.96617 11.9476 4.38697C11.9476 6.00246 12.82 7.412 14.1188 8.17166C14.7687 8.5544 15.5254 8.77297 16.3336 8.77297V6.58434C15.1213 6.58434 14.1353 5.59834 14.1353 4.386C14.1353 3.17366 15.1213 2.19154 16.3336 2.1896V2.19057Z" fill="#0A3462"/>
  <path d="M16.3336 43.9027V46.9132C14.5462 46.5441 10.371 45.4726 6.67278 42.3776C3.95278 40.1025 2.48592 37.2951 1.76221 35.4707C2.54809 36.515 3.58655 37.3845 4.87855 38.0742C5.71786 38.523 6.65821 38.8999 7.71706 39.2049C9.50644 41.1769 12.582 42.6681 16.3336 43.9027Z" fill="#0A3462"/>
  <path d="M16.3336 9.73566C17.1418 9.73566 17.8986 9.51514 18.5485 9.13434V12.1545C17.8471 12.1021 17.1098 12.0681 16.3336 12.0545V9.73566Z" fill="#082A50"/>
  <path d="M20.7196 4.386C20.7196 6.00149 19.8473 7.41103 18.5485 8.17069C17.8986 8.55343 17.1418 8.772 16.3336 8.772V6.58337H16.3356C17.546 6.58337 18.532 5.59737 18.532 4.38503C18.532 3.17269 17.546 2.18863 16.3356 2.18863H16.3336V0C18.7554 0 20.7196 1.96423 20.7196 4.38503V4.386Z" fill="#082A50"/>
  <path d="M17.7208 22.1699L16.3336 22.066V19.1721C17.1953 19.1925 17.9268 19.244 18.5485 19.3188V22.2331C18.2784 22.2088 18.0016 22.1894 17.7208 22.169V22.1699Z" fill="#082A50"/>
  <path d="M16.8252 32.6604C16.6571 32.6604 16.4929 32.6585 16.3336 32.6565V29.377L16.3822 29.3789C17.1982 29.4391 17.917 29.4955 18.5485 29.5509V32.6293C18.0356 32.6497 17.4644 32.6614 16.8252 32.6614V32.6604Z" fill="#082A50"/>
  <path d="M16.3336 18.0773V13.1483C25.1892 13.3066 29.8734 16.151 30.1376 21.4608H23.1424C23.1424 19.1381 20.9673 18.1881 16.3336 18.0773Z" fill="#082A50"/>
  <path d="M17.0311 39.7722C17.5518 39.7722 18.0589 39.7664 18.5485 39.7518V42.1007C17.8646 42.3776 17.1253 42.6496 16.3356 42.9148H16.3336V39.7683C16.5619 39.7703 16.795 39.7722 17.0311 39.7722Z" fill="#082A50"/>
  <path d="M31.1576 30.7991C31.1576 36.5034 26.3675 38.6765 17.0311 38.6765C16.795 38.6765 16.5638 38.6745 16.3336 38.6706V33.7484C16.4939 33.7503 16.6581 33.7523 16.8252 33.7523C22.4633 33.7523 24.1614 32.9382 24.1614 31.0362C24.1614 29.7131 23.4804 29.1001 21.4093 28.7611C20.3573 28.5911 18.7272 28.4561 16.4521 28.2861L16.3336 28.2802V23.1647L16.2421 23.1647C20.9353 23.4989 23.4824 23.8379 25.3164 24.2449C27.1165 24.6519 28.5416 25.3669 29.5956 26.351C30.6476 27.371 31.1586 28.8641 31.1586 30.8001L31.1576 30.7991Z" fill="#082A50"/>
  <path d="M30.2658 36.9036C29.4236 38.589 28.0753 40.6397 25.9984 42.3776C22.2962 45.4745 18.1191 46.5431 16.3356 46.9132H16.3336V43.9027H16.3356C19.8531 42.7438 22.78 41.3615 24.6034 39.5673C26.7881 39.0806 28.7941 38.2626 30.2658 36.9036Z" fill="#082A50"/>
</svg>